<svg width="32" height="32" viewBox="0 0 32 32" fill="none" xmlns="http://www.w3.org/2000/svg">
<circle cx="16" cy="16" r="16" fill="#666666"/>
<path d="M18.9075 24.8782H13.4692C13.3587 24.8687 13.2481 24.8531 13.1375 24.8502C12.4195 24.8307 11.703 24.8027 11.0002 24.633C9.50334 24.2715 8.39165 23.4235 7.73002 22.023C7.32 21.1554 7.19703 20.222 7.18746 19.2751C7.16726 17.3278 7.14954 15.3801 7.15875 13.4328C7.16301 12.4993 7.16903 11.5599 7.39583 10.6434C7.79062 9.04695 8.72157 7.90266 10.2592 7.27859C11.0846 6.9437 11.9557 6.84943 12.8352 6.83987C14.6713 6.82002 16.5073 6.80443 18.3434 6.81116C19.3069 6.81471 20.2762 6.80904 21.2256 7.01564C22.978 7.39766 24.2059 8.40127 24.8229 10.1066C25.1191 10.9255 25.1897 11.7814 25.1921 12.6425C25.1989 14.7256 25.2046 16.8086 25.1879 18.8917C25.1833 19.4835 25.1362 20.0803 25.0451 20.665C24.858 21.8621 24.3197 22.8816 23.3738 23.662C22.4517 24.4228 21.3613 24.728 20.1922 24.807C19.7644 24.8357 19.3364 24.8548 18.9083 24.8782H18.9075ZM16.177 23.2803L16.1778 23.2527C16.6544 23.2527 17.1317 23.2669 17.6077 23.2498C18.6357 23.213 19.6716 23.225 20.6894 23.0982C22.08 22.9245 23.0216 22.1257 23.3646 20.7426C23.5003 20.1947 23.5496 19.615 23.5592 19.0487C23.59 17.2133 23.5974 15.3773 23.5868 13.5416C23.5825 12.8137 23.5471 12.0812 23.455 11.3596C23.2696 9.90952 22.3631 8.92646 20.9307 8.64083C20.3123 8.51751 19.6702 8.48065 19.0376 8.47002C17.4549 8.4438 15.8716 8.4484 14.2885 8.45372C13.3831 8.45655 12.4752 8.44521 11.5779 8.60291C10.2082 8.84389 9.26874 9.7139 8.98842 11.0797C8.86758 11.6683 8.82789 12.2807 8.81513 12.8835C8.7843 14.3304 8.77261 15.7784 8.78891 17.2257C8.80025 18.2481 8.82718 19.274 8.92534 20.2908C9.02103 21.2844 9.48987 22.1041 10.3613 22.6446C10.9506 23.0099 11.613 23.1559 12.2952 23.1804C13.5886 23.2268 14.8832 23.2484 16.177 23.2803Z" fill="#1A1A1A"/>
<path d="M11.5394 15.836C11.5451 13.2706 13.6363 11.1876 16.1946 11.1993C18.7677 11.2113 20.8451 13.2986 20.8278 15.8551C20.8104 18.423 18.738 20.4894 16.1839 20.4855C13.6186 20.4816 11.5338 18.3943 11.5391 15.836H11.5394ZM13.176 15.8424C13.176 17.5083 14.5155 18.8482 16.1818 18.8496C17.8495 18.8511 19.1898 17.5161 19.1944 15.8487C19.199 14.1757 17.8538 12.8298 16.1797 12.8323C14.5141 12.8344 13.1756 14.1757 13.176 15.842V15.8424Z" fill="#1A1A1A"/>
<path d="M22.0928 11.0064C22.0967 11.605 21.6233 12.0905 21.029 12.0968C20.4258 12.1036 19.9325 11.6209 19.9297 11.0213C19.9269 10.4231 20.3996 9.94113 20.9964 9.93369C21.6056 9.92589 22.0893 10.399 22.0932 11.0064H22.0928Z" fill="#1A1A1A"/>
</svg>
