<svg width="10" height="12" viewBox="0 0 10 12" fill="none" xmlns="http://www.w3.org/2000/svg">
<path d="M7.02344 3.03613C6.75911 3.03613 6.51074 3.07715 6.27832 3.15918C6.0459 3.23665 5.83626 3.31641 5.64941 3.39844C5.46257 3.48047 5.2985 3.52148 5.15723 3.52148C5.01139 3.52148 4.84733 3.48275 4.66504 3.40527C4.4873 3.3278 4.2959 3.2526 4.09082 3.17969C3.88574 3.10221 3.66699 3.06348 3.43457 3.06348C2.99707 3.06348 2.57324 3.18424 2.16309 3.42578C1.75749 3.66276 1.4248 4.01595 1.16504 4.48535C0.905273 4.9502 0.775391 5.52669 0.775391 6.21484C0.775391 6.85742 0.882487 7.49544 1.09668 8.12891C1.31543 8.75781 1.57747 9.29102 1.88281 9.72852C2.14714 10.0977 2.40462 10.4144 2.65527 10.6787C2.90592 10.943 3.19759 11.0752 3.53027 11.0752C3.74902 11.0752 3.93815 11.0387 4.09766 10.9658C4.26172 10.8929 4.43262 10.82 4.61035 10.7471C4.79264 10.6742 5.01823 10.6377 5.28711 10.6377C5.5651 10.6377 5.78613 10.6742 5.9502 10.7471C6.11426 10.8154 6.27376 10.8861 6.42871 10.959C6.58366 11.0273 6.7819 11.0615 7.02344 11.0615C7.38346 11.0615 7.69108 10.9248 7.94629 10.6514C8.20605 10.3779 8.44759 10.0794 8.6709 9.75586C8.92611 9.38216 9.1084 9.04264 9.21777 8.7373C9.33171 8.43197 9.39095 8.27018 9.39551 8.25195C9.38639 8.2474 9.30892 8.20638 9.16309 8.12891C9.02181 8.05143 8.85775 7.93066 8.6709 7.7666C8.48861 7.59798 8.32682 7.37695 8.18555 7.10352C8.04883 6.83008 7.98047 6.4974 7.98047 6.10547C7.98047 5.76367 8.03516 5.46973 8.14453 5.22363C8.25391 4.97298 8.38151 4.7679 8.52734 4.6084C8.67318 4.44434 8.80534 4.32129 8.92383 4.23926C9.04232 4.15267 9.1084 4.10254 9.12207 4.08887C8.88509 3.74707 8.62077 3.50326 8.3291 3.35742C8.04199 3.20703 7.77767 3.11589 7.53613 3.08398C7.2946 3.05208 7.1237 3.03613 7.02344 3.03613ZM6.64746 2.16797C6.81152 1.96745 6.94596 1.73958 7.05078 1.48438C7.1556 1.22461 7.20801 0.958008 7.20801 0.68457C7.20801 0.602539 7.20117 0.531901 7.1875 0.472656C6.92318 0.481771 6.64518 0.561523 6.35352 0.711914C6.06185 0.862305 5.82031 1.05143 5.62891 1.2793C5.47852 1.44792 5.34408 1.66211 5.22559 1.92188C5.1071 2.17708 5.04785 2.44141 5.04785 2.71484C5.04785 2.75586 5.05013 2.7946 5.05469 2.83105C5.05924 2.86751 5.0638 2.89258 5.06836 2.90625C5.11393 2.91536 5.16178 2.91992 5.21191 2.91992C5.45345 2.91992 5.70866 2.84928 5.97754 2.70801C6.24642 2.56217 6.46973 2.38216 6.64746 2.16797Z" fill="#999999"/>
</svg>
