<svg width="32" height="32" viewBox="0 0 32 32" fill="none" xmlns="http://www.w3.org/2000/svg">
<circle cx="16" cy="16" r="16" fill="#666666"/>
<g clip-path="url(#clip0_761_21260)">
<path d="M16.213 6.81934C11.0628 6.81934 6.88672 10.6813 6.88672 15.4456C6.88672 18.9642 8.36125 20.6437 10.3787 22.1768L10.3894 22.1821V26.3102C10.3894 26.5045 10.613 26.6163 10.7673 26.4992L14.3046 23.8722L14.3818 23.9042C14.9753 24.0133 15.5875 24.0718 16.2156 24.0718C21.3658 24.0718 25.5419 20.2099 25.5419 15.4456C25.5419 10.6813 21.3658 6.81934 16.213 6.81934Z" fill="#666666"/>
<path d="M16.21 6.32715C10.8016 6.32715 6.41797 10.3834 6.41797 15.3846C6.41797 19.0789 7.96436 20.8435 10.0857 22.4511L10.0963 22.4564V26.7922C10.0963 26.9971 10.3305 27.1143 10.4929 26.9918L14.2058 24.2344L14.2857 24.269C14.9085 24.3834 15.5526 24.4447 16.21 24.4447C21.6184 24.4447 26.002 20.3884 26.002 15.3872C26.002 10.3861 21.6184 6.32715 16.21 6.32715ZM12.9282 17.6789C13.8891 17.6789 14.7089 17.104 14.9564 16.2177H16.375C16.029 17.9264 14.6982 19.0443 12.9282 19.0443C10.8708 19.0443 9.23927 17.5085 9.23927 15.3739C9.23927 13.2393 10.8708 11.7036 12.9282 11.7036C14.7168 11.7036 16.0556 12.8454 16.3857 14.5834H14.9697C14.7541 13.6386 13.9051 13.0504 12.9282 13.0504C11.5442 13.0504 10.6233 14.0378 10.6233 15.3739C10.6233 16.7101 11.6693 17.6789 12.9282 17.6789ZM22.2838 18.9032H20.9822V15.9675C20.9822 15.2914 20.5883 14.9294 19.9841 14.9294C19.3081 14.9294 18.8743 15.342 18.8743 16.1804V18.9032H17.5727V11.7249H18.8743V14.4264C19.1857 13.9526 19.6914 13.7211 20.3781 13.7211C20.9317 13.7211 21.3868 13.9021 21.7408 14.2747C22.1054 14.6473 22.2864 15.153 22.2864 15.8078V18.9032H22.2838Z" fill="#191919"/>
</g>
<defs>
<clipPath id="clip0_761_21260">
<rect width="19.5841" height="20.7126" fill="white" transform="translate(6.41797 6.32715)"/>
</clipPath>
</defs>
</svg>
