<svg width="32" height="32" viewBox="0 0 32 32" fill="none" xmlns="http://www.w3.org/2000/svg">
<circle cx="16" cy="16" r="16" fill="#666666"/>
<path d="M24.414 9.83824V22.4052C24.4036 22.4411 24.3902 22.4761 24.3837 22.5125C24.1933 23.6193 23.2739 24.4107 22.1558 24.4116C18.1299 24.4146 14.1045 24.4155 10.0787 24.4112C8.83594 24.4099 7.83337 23.406 7.83208 22.1646C7.82818 18.1335 7.82429 14.1025 7.83554 10.0715C7.83813 9.17015 8.27473 8.49427 9.07609 8.08018C9.31061 7.95902 9.58321 7.91143 9.83851 7.83008C14.0275 7.83008 18.2165 7.83008 22.4054 7.83008C22.4361 7.8396 22.466 7.85215 22.4972 7.8582C23.4387 8.03388 24.0475 8.58298 24.3318 9.49468C24.3668 9.60675 24.3868 9.72357 24.4136 9.83824H24.414ZM16.6639 15.1682C16.6639 15.0229 16.6657 14.8857 16.6639 14.7481C16.6596 14.4772 16.5475 14.3634 16.2784 14.3626C15.8037 14.3608 15.3286 14.3608 14.8539 14.3626C14.5835 14.3634 14.4714 14.4768 14.4714 14.7481C14.471 16.8038 14.471 18.86 14.4714 20.9158C14.4714 21.1841 14.5891 21.3026 14.8548 21.3035C15.3026 21.3048 15.7505 21.3039 16.1983 21.3035C16.5635 21.3035 16.657 21.21 16.657 20.844C16.657 19.8081 16.6557 18.7718 16.6579 17.7359C16.6587 17.346 16.7418 16.9748 16.953 16.642C17.2178 16.2245 17.612 16.0908 18.0845 16.1539C18.5172 16.2115 18.8032 16.4672 18.9018 16.8783C18.9823 17.2149 19.0187 17.5689 19.0239 17.9159C19.0386 18.9141 19.0269 19.9124 19.0278 20.9106C19.0278 21.1901 19.142 21.3005 19.4237 21.3009C19.9092 21.3018 20.3951 21.3022 20.8806 21.3009C21.1558 21.3 21.2717 21.1819 21.2717 20.9024C21.2713 19.764 21.2843 18.6251 21.2609 17.4871C21.2514 17.0154 21.2012 16.5373 21.1 16.0773C20.9143 15.2331 20.4492 14.5988 19.5695 14.3669C19.3064 14.2976 19.0278 14.2626 18.7556 14.2578C17.9438 14.2436 17.2134 14.4396 16.7119 15.1483C16.7072 15.1548 16.6951 15.1557 16.6644 15.1682H16.6639ZM11.2954 17.8324C11.2954 18.8414 11.2954 19.8505 11.2954 20.8591C11.2954 21.1875 11.414 21.3035 11.7467 21.3039C12.1785 21.3039 12.61 21.3044 13.0418 21.3039C13.3598 21.3039 13.4849 21.1823 13.4849 20.8652C13.4857 18.8419 13.4857 16.8186 13.4849 14.7953C13.4849 14.4777 13.3628 14.36 13.0396 14.3591C12.6078 14.3578 12.1764 14.3578 11.7446 14.3591C11.4109 14.36 11.2954 14.4759 11.2954 14.8056C11.2954 15.8147 11.2954 16.8238 11.2954 17.8324ZM13.799 12.3604C13.8068 11.5898 13.185 10.9503 12.4174 10.9395C11.6295 10.9286 10.983 11.5548 10.9748 12.3358C10.967 13.1146 11.5931 13.7555 12.3681 13.762C13.1625 13.7689 13.7908 13.1532 13.7986 12.36L13.799 12.3604Z" fill="#1A1A1A"/>
</svg>
