<svg width="51" height="14" viewBox="0 0 51 14" fill="none" xmlns="http://www.w3.org/2000/svg">
<g clip-path="url(#clip0_761_21299)">
<path d="M10.7559 11.355L9.95207 11.4653L8.88035 3.56918L6.54776 9.76313L5.9331 9.84194L2.02445 4.49906L3.09617 12.3952L2.29238 12.5055L1 2.92299L1.8038 2.81267L6.10647 8.70717L8.64394 1.88279L9.44773 1.77246L10.7559 11.355Z" fill="white"/>
<path d="M16.2441 11.0703C14.1006 11.2121 12.4457 9.63605 12.3197 7.46107L11.9414 1.55081L12.7452 1.50353L13.1235 7.42955C13.2338 9.17899 14.5577 10.361 16.1968 10.2507C17.7413 10.1561 19.0022 8.81649 18.8919 7.06705L18.5136 1.14103L19.3174 1.09375L19.6957 7.00401C19.8375 9.16323 18.2142 10.9442 16.2441 11.0703Z" fill="white"/>
<path d="M29.1985 10.6771H28.4105L22.3583 2.4027V10.6771H21.5703V1H22.3583L28.4105 9.2586V1H29.1827V10.6771H29.1985Z" fill="white"/>
<path d="M32.1899 1.14187L31.8116 10.8189L31.0078 10.7874L31.3861 1.11035L32.1899 1.14187Z" fill="white"/>
<path d="M33.5777 5.9966C33.7984 3.30152 36.0837 1.23687 38.7157 1.44176C40.0396 1.55209 41.1744 2.19827 41.9624 3.14392L41.3005 3.64826C40.6543 2.84446 39.7244 2.35588 38.6369 2.26132C36.4777 2.08795 34.5707 3.75858 34.3815 6.04388C34.1924 8.34495 35.8157 10.2993 37.975 10.4726C39.0624 10.5672 40.0711 10.2047 40.8276 9.51124L41.395 10.1101C40.4652 10.9297 39.2358 11.3868 37.9119 11.2764C35.2641 11.0715 33.3413 8.67592 33.5462 5.98084L33.5777 5.9966Z" fill="white"/>
<path d="M49.8875 3.67915L44.5919 2.9384L44.1033 6.42151L48.9891 7.11498L48.8788 7.90302L43.993 7.20955L43.4571 10.9764L48.7527 11.7171L48.6424 12.4894L42.543 11.6225L43.8984 2.04004L49.9978 2.90688L49.8875 3.67915Z" fill="white"/>
</g>
<defs>
<clipPath id="clip0_761_21299">
<rect width="49" height="11.5053" fill="white" transform="translate(1 1)"/>
</clipPath>
</defs>
</svg>
