<svg width="32" height="33" viewBox="0 0 32 33" fill="none" xmlns="http://www.w3.org/2000/svg">
<circle cx="16" cy="16.998" r="16" fill="#666666"/>
<g clip-path="url(#clip0_761_21269)">
<path d="M24.9886 17.8713C24.9886 19.985 24.9513 22.0987 24.946 24.2131C24.944 25.0086 24.5999 25.406 23.8058 25.474C22.9096 25.5513 21.9428 25.5813 21.0446 25.6287C19.3403 25.7187 17.636 25.808 15.9317 25.8954C14.4735 25.9701 13.0152 26.0321 11.5576 26.1201C10.8655 26.1621 10.3674 25.9074 9.96266 25.3406C9.25387 24.3485 8.49907 23.3896 7.76494 22.4155C7.44955 21.9967 7.15883 21.558 7.13283 21.0159C7.10949 20.5238 7.12749 20.029 7.13149 19.5363C7.1435 18.0894 7.15683 16.6424 7.17083 15.1955C7.1895 13.3152 7.20684 11.4349 7.22951 9.55453C7.23885 8.76105 7.63558 8.35565 8.42905 8.30497C10.9835 8.14161 13.538 7.97691 16.0917 7.81355C17.1426 7.74621 18.1934 7.68153 19.2443 7.61218C19.8411 7.57284 20.3705 7.73621 20.8552 8.08893C22.0514 8.95975 23.249 9.82791 24.4599 10.6767C24.8566 10.9548 25.0026 11.2868 24.9973 11.7709C24.9753 13.8046 24.988 15.8383 24.988 17.872C24.952 17.872 25.024 17.872 24.988 17.872L24.9886 17.8713ZM23.7264 17.978C23.7497 17.978 23.7031 17.978 23.7264 17.978C23.7264 17.2445 23.7224 16.5111 23.7271 15.7776C23.7344 14.6974 23.7524 13.6172 23.7564 12.537C23.7584 12.0136 23.5617 11.8463 23.0456 11.8729C20.7686 11.9903 18.4922 12.1036 16.2151 12.2183C14.6375 12.2977 13.0592 12.3757 11.4816 12.4557C11.0642 12.477 10.8908 12.6477 10.8768 13.0658C10.8628 13.4792 10.8601 13.8926 10.8568 14.306C10.8301 17.4599 10.8041 20.6138 10.7788 23.7684C10.7728 24.5338 10.9682 24.7332 11.7376 24.7052C12.6505 24.6718 13.562 24.6192 14.4741 24.5738C16.2451 24.4858 18.0161 24.3978 19.7871 24.3098C20.8592 24.2564 21.9974 24.2051 23.0696 24.1484C23.461 24.1278 23.6771 23.9104 23.7124 23.519C23.7184 23.4523 23.7231 23.3856 23.7231 23.3189C23.7231 21.5386 23.7264 19.7583 23.7264 17.978ZM22.4442 10.6307L22.4842 10.5607C22.4168 10.488 22.3582 10.4033 22.2802 10.3453C21.7314 9.93393 21.1713 9.53719 20.6292 9.11711C20.1865 8.77372 19.6984 8.61503 19.1416 8.65103C17.9581 8.72771 16.7745 8.79973 15.591 8.87507C14.2281 8.96175 12.8652 9.05044 11.5023 9.13845C10.7175 9.18913 9.93265 9.2358 9.14918 9.30115C9.03449 9.31048 8.92848 9.41517 8.81846 9.47518C8.88113 9.56853 8.92648 9.68255 9.00982 9.75256C9.41723 10.096 9.8433 10.4167 10.2454 10.7654C10.6141 11.0855 11.0248 11.2242 11.5109 11.1968C12.7418 11.1268 13.9734 11.0715 15.2042 11.0081C17.2006 10.9061 19.1969 10.8021 21.1933 10.6987C21.6107 10.6774 22.0274 10.6534 22.4449 10.63L22.4442 10.6307Z" fill="#191919"/>
<path d="M15.0783 16.7206V22.0309C15.4217 22.1129 15.7825 22.1996 16.1639 22.2909C16.1385 22.5416 16.0172 22.7223 15.7985 22.8204C15.6678 22.879 15.5184 22.9157 15.3757 22.9237C14.5302 22.9724 13.6841 23.0097 12.8386 23.0497C12.8199 23.0504 12.8013 23.0424 12.7839 23.0391C12.7026 22.739 12.8119 22.541 13.1013 22.4596C13.2867 22.4076 13.4727 22.3569 13.6781 22.3003C13.6988 19.9345 13.7194 17.5708 13.7408 15.1884L12.8653 15.101C12.7599 14.6729 13.002 14.3249 13.4541 14.2842C13.9782 14.2368 14.5049 14.2168 15.031 14.1868C15.3371 14.1688 15.6444 14.1608 15.9492 14.1342C16.0879 14.1222 16.1639 14.1675 16.2379 14.2829C17.3521 16.0312 18.4703 17.7761 19.5878 19.5218C19.6305 19.5885 19.6752 19.6545 19.7665 19.7158V14.8016C19.5338 14.7716 19.2784 14.7276 19.0217 14.7089C18.869 14.6976 18.8463 14.6263 18.8637 14.5016C18.9017 14.2255 19.1237 14.0008 19.4171 13.9835C20.2092 13.9355 21.0021 13.9028 21.7942 13.8581C21.9349 13.8501 21.9636 13.9115 21.9662 14.0321C21.9729 14.3369 21.8522 14.4896 21.5541 14.5429C21.4035 14.5702 21.2541 14.6009 21.0561 14.6389C21.0561 14.9436 21.0581 15.2544 21.0561 15.5651C21.0394 17.8395 21.0201 20.1139 21.0074 22.3883C21.0067 22.5356 20.9654 22.6143 20.8287 22.675C20.4106 22.8604 19.9865 23.0364 19.5211 22.9477C19.3291 22.911 19.1097 22.8244 18.9824 22.6863C18.7263 22.411 18.5056 22.0969 18.3042 21.7768C17.2681 20.1299 16.2419 18.4763 15.2124 16.8253C15.1884 16.7866 15.163 16.7493 15.139 16.7113L15.0803 16.722L15.0783 16.7206Z" fill="#191919"/>
</g>
<defs>
<clipPath id="clip0_761_21269">
<rect width="17.8778" height="18.5186" fill="white" transform="translate(7.12109 7.60547)"/>
</clipPath>
</defs>
</svg>
